<svg width="331" height="34" viewBox="0 0 331 34" fill="none" xmlns="http://www.w3.org/2000/svg">
<g clip-path="url(#clip0)">
<path d="M45.1031 8L49.0031 20L53.0031 8H57.0031L50.8031 25.8H47.5031L41.2031 8H45.1031Z" fill="#010202"/>
<path d="M64.7039 25.9H61.0039V8H64.6039V25.9H64.7039Z" fill="#010202"/>
<path d="M80.2039 25.9L77.0039 18.9H74.1039V25.9H70.5039V8H76.9039C81.0039 8 83.6039 9.8 83.6039 13.5C83.6039 15.9 82.5039 17.5 80.5039 18.3L84.2039 25.9H80.2039ZM76.5039 15.8C78.6039 15.8 79.9039 15.3 79.9039 13.5C79.9039 11.7 78.7039 11.1 76.5039 11.1H74.1039V15.8H76.5039Z" fill="#010202"/>
<path d="M100.103 8V11.1H95.2031V25.9H91.6031V11.1H86.7031V8H100.103Z" fill="#010202"/>
<path d="M117.804 8V18.6C117.804 23.9 114.904 26.1 110.904 26.1C106.904 26.1 104.004 23.9 104.004 18.7V8H107.604V18.6C107.604 21.7 108.604 23 110.804 23C113.004 23 114.004 21.7 114.004 18.6V8H117.804Z" fill="#010202"/>
<path d="M134.502 8V11.1H127.002V15.1H133.702V18.2H127.002V22.9H134.502V26H123.402V8H134.502Z" fill="#010202"/>
<path d="M142.702 22.8H150.202V25.9H139.102V8H142.702V22.8Z" fill="#010202"/>
<path d="M165.303 8V11.1H157.803V15.1H164.503V18.2H157.803V22.9H165.303V26H154.203V8H165.303Z" fill="#010202"/>
<path d="M176.504 25.9L182.704 8H186.204L192.404 25.8H188.504L187.404 22.4H181.404L180.304 25.8H176.504V25.9ZM182.404 19.4H186.404L184.404 13.1L182.404 19.4Z" fill="#010202"/>
<path d="M204.904 13.5C204.604 11.8 203.604 10.8 201.804 10.8C199.704 10.8 198.604 12.2 198.604 15.6V18.1C198.604 21.4 199.704 22.9 201.804 22.9C203.604 22.9 204.504 22 204.904 20.2H208.304C207.704 24.2 205.504 26 201.804 26C197.804 26 195.004 23.6 195.004 18.1V15.6C195.004 10.1 197.804 7.69995 201.804 7.69995C205.304 7.69995 207.704 9.59995 208.304 13.5H204.904Z" fill="#010202"/>
<path d="M224.502 8V11.1H219.602V25.9H216.002V11.1H211.102V8H224.502Z" fill="#010202"/>
<path d="M232.405 25.9H228.805V8H232.405V25.9Z" fill="#010202"/>
<path d="M240.504 8L244.404 20L248.304 8H252.304L246.004 25.9H242.704L236.504 8H240.504Z" fill="#010202"/>
<path d="M260.002 25.9H256.402V8H260.002V25.9Z" fill="#010202"/>
<path d="M277.705 8V11.1H272.805V25.9H269.205V11.1H264.305V8H277.705Z" fill="#010202"/>
<path d="M292.905 8V11.1H285.405V15.1H292.105V18.2H285.405V22.9H292.905V26H281.805V8H292.905Z" fill="#010202"/>
<path d="M301.303 25.9H297.703V8H301.303V25.9Z" fill="#010202"/>
<path d="M319.002 8V11.1H314.102V25.9H310.502V11.1H305.602V8H319.002Z" fill="#010202"/>
<path d="M74.8016 0H34.1016H0.101562V33.7H34.1016H74.8016H330.802V0H74.8016ZM21.5016 20.2C21.5016 21.1 20.8016 21.9 19.8016 21.9H9.80156C8.90156 21.9 8.10156 21.2 8.10156 20.2V13.5C8.10156 12.6 8.80156 11.8 9.80156 11.8H19.8016C20.7016 11.8 21.5016 12.5 21.5016 13.5V20.2ZM28.1016 21.8L23.1016 18.3V15.3L28.1016 11.8V21.8ZM328.802 31.7H36.1016V2H328.802V31.7Z" fill="#010202"/>
</g>
<defs>
<clipPath id="clip0">
<rect width="330.8" height="33.7" fill="white"/>
</clipPath>
</defs>
</svg>
